<svg width="32" height="32" viewBox="0 0 32 32" fill="none" xmlns="http://www.w3.org/2000/svg">
<rect width="32" height="32" fill="#FFBF08"/>
<path d="M23.8642 21C23.7475 21 23.6892 20.9417 23.6892 20.825V11.844C23.6892 11.7273 23.7475 11.669 23.8642 11.669H28.7432C28.8599 11.669 28.9182 11.7273 28.9182 11.844V13.356C28.9182 13.4727 28.8599 13.531 28.7432 13.531H26.0202V15.519H28.5052C28.6219 15.519 28.6802 15.5773 28.6802 15.694V16.975C28.6802 17.0917 28.6219 17.15 28.5052 17.15H26.0202V19.131H28.7432C28.8599 19.131 28.9182 19.1893 28.9182 19.306V20.825C28.9182 20.9417 28.8599 21 28.7432 21H23.8642Z" fill="white"/>
<path d="M16.3442 21C16.2275 21 16.1692 20.9417 16.1692 20.825V11.844C16.1692 11.7273 16.2275 11.669 16.3442 11.669H18.3252C18.4419 11.669 18.5002 11.7273 18.5002 11.844V15.554H19.3682L19.8302 13.811L20.2502 11.76C20.2595 11.732 20.2805 11.711 20.3132 11.697C20.3505 11.6783 20.4042 11.669 20.4742 11.669H22.4902C22.6069 11.669 22.6652 11.7273 22.6652 11.844V12.719C22.6652 12.7703 22.6582 12.8217 22.6442 12.873C22.6302 12.9197 22.6185 12.9617 22.6092 12.999L21.7552 15.05L21.1602 16.17L21.7692 17.276L22.7982 19.614C22.8169 19.6467 22.8309 19.6817 22.8402 19.719C22.8495 19.7563 22.8542 19.81 22.8542 19.88V20.825C22.8542 20.9417 22.7959 21 22.6792 21H20.5932C20.5605 21 20.5185 20.9953 20.4672 20.986C20.4205 20.972 20.3925 20.9417 20.3832 20.895L19.8652 18.676L19.4802 17.409H18.5002V20.825C18.5002 20.9417 18.4419 21 18.3252 21H16.3442Z" fill="white"/>
<path d="M10.8993 21C10.7873 21 10.694 20.9603 10.6193 20.881L9.21934 19.481C9.14001 19.4063 9.10034 19.313 9.10034 19.201V11.844C9.10034 11.7273 9.15868 11.669 9.27534 11.669H11.2563C11.373 11.669 11.4313 11.7273 11.4313 11.844V18.991C11.4313 19.0843 11.478 19.131 11.5713 19.131H12.7193V11.844C12.7193 11.7273 12.7777 11.669 12.8943 11.669H14.8753C14.992 11.669 15.0503 11.7273 15.0503 11.844V20.825C15.0503 20.9417 14.992 21 14.8753 21H10.8993Z" fill="white"/>
<path d="M1.96602 21C1.84935 21 1.79102 20.9417 1.79102 20.825V11.844C1.79102 11.7273 1.84935 11.669 1.96602 11.669H6.23602C6.34802 11.669 6.44135 11.7063 6.51602 11.781L7.91602 13.181C7.99535 13.2603 8.03502 13.3537 8.03502 13.461V19.201C8.03502 19.313 7.99535 19.4063 7.91602 19.481L6.51602 20.881C6.44135 20.9603 6.34802 21 6.23602 21H1.96602ZM4.12902 19.131H5.41002C5.60602 19.131 5.70402 19.0003 5.70402 18.739V13.93C5.70402 13.664 5.60602 13.531 5.41002 13.531H4.12902V19.131Z" fill="white"/>
</svg>
